<?xml version="1.0" standalone="no"?><!DOCTYPE svg PUBLIC "-//W3C//DTD SVG 1.1//EN" "http://www.w3.org/Graphics/SVG/1.1/DTD/svg11.dtd"><svg t="1685027624654" class="icon" viewBox="0 0 1024 1024" version="1.1" xmlns="http://www.w3.org/2000/svg" p-id="2844" xmlns:xlink="http://www.w3.org/1999/xlink" width="200" height="200"><path d="M512 640c115.2 0 208-92.8 208-208v-160C720 156.8 627.2 64 512 64S304 156.8 304 272v160c0 115.2 92.8 208 208 208zM368 272C368 192 432 128 512 128s144 64 144 144v160c0 80-64 144-144 144s-144-64-144-144v-160zM844.8 480c0-17.6-14.4-32-32-32-16 0-30.4 12.8-32 28.8-22.4 129.6-134.4 227.2-268.8 227.2s-246.4-97.6-268.8-227.2c-1.6-16-16-28.8-32-28.8-17.6 0-32 14.4-32 32v4.8c25.6 150.4 148.8 267.2 300.8 281.6V928c0 17.6 14.4 32 32 32s32-14.4 32-32v-161.6c152-14.4 275.2-131.2 299.2-280 0-1.6 1.6-4.8 1.6-6.4z" p-id="2845" fill="#ffffff"></path></svg>